<svg width="285" height="188" viewBox="0 0 285 188" fill="none" xmlns="http://www.w3.org/2000/svg">
<rect width="285" height="188" fill="#07F0FF"/>
<rect width="285" height="188" fill="#07F0FF"/>
<path d="M121 57V34H27V77H34H51V57H121Z" fill="black"/>
<path d="M27 86H51H121V126H98V112H60H27V86Z" fill="black"/>
<path d="M121 134H98H27V160H121V134Z" fill="black"/>
<path d="M217 34H163V57H204L217 34Z" fill="black"/>
<path d="M255 34H229L163 160H186L255 34Z" fill="black"/>
<path d="M199 160H255V134H212L199 160Z" fill="black"/>
<path d="M121 57V34H27V77H34H51V57H121Z" stroke="black"/>
<path d="M27 86H51H121V126H98V112H60H27V86Z" stroke="black"/>
<path d="M121 134H98H27V160H121V134Z" stroke="black"/>
<path d="M217 34H163V57H204L217 34Z" stroke="black"/>
<path d="M255 34H229L163 160H186L255 34Z" stroke="black"/>
<path d="M199 160H255V134H212L199 160Z" stroke="black"/>
<path d="M88.2297 40.1655C88.2704 42.1671 89.2809 46.1293 92.9975 45.9655C97.6434 45.7607 98.41 46.0994 102.856 47.0378C107.303 47.9761 107.058 46.2262 109.633 49.2108C110.126 49.7818 110.12 50.0798 109.773 50.2093C108.307 50.7565 100.752 48.2905 99.0535 50.6929C96.9526 53.6636 89.149 46.7277 89.6393 50.2275C90.0315 53.0274 86.2152 48.0308 84.258 45.1825L88.2297 40.1655Z" fill="#68CE17"/>
<path d="M88.2297 40.1655C88.2704 42.1671 89.2809 46.1293 92.9975 45.9655C97.6434 45.7607 98.41 46.0994 102.856 47.0378C107.303 47.9761 107.058 46.2262 109.633 49.2108C110.126 49.7818 110.12 50.0798 109.773 50.2093M88.2297 40.1655L84.258 45.1825C86.2152 48.0308 90.0315 53.0274 89.6393 50.2275C89.149 46.7277 96.9526 53.6636 99.0535 50.6929C100.752 48.2905 108.307 50.7565 109.773 50.2093M88.2297 40.1655C87.7798 41.2322 86.9199 43.6499 87.0793 44.7873C87.2386 45.9248 89.6754 47.0628 90.8738 47.4897C92.2588 47.9648 95.2404 48.8853 96.0868 48.7667C96.9332 48.6481 101.075 48.4396 103.04 48.3502C105.789 48.7182 110.983 49.6052 109.773 50.2093" stroke="black"/>
<path d="M59.9613 90.4637C59.0857 92.2641 58.1804 96.2517 61.5637 97.7989C65.7928 99.7329 66.3209 100.384 69.8517 103.244C73.3826 106.105 73.9615 104.436 74.8947 108.266C75.0732 108.999 74.9321 109.261 74.5644 109.219C73.0101 109.038 67.4082 103.401 64.8013 104.766C61.5778 106.454 57.7904 96.7243 56.6326 100.063C55.7063 102.734 54.5851 96.5479 54.1402 93.1208L59.9613 90.4637Z" fill="#68CE17"/>
<path d="M59.9613 90.4637C59.0857 92.2641 58.1804 96.2517 61.5637 97.7989C65.7928 99.7329 66.3209 100.384 69.8517 103.244C73.3826 106.105 73.9615 104.436 74.8947 108.266C75.0732 108.999 74.9321 109.261 74.5644 109.219M59.9613 90.4637L54.1402 93.1208C54.5851 96.5479 55.7063 102.734 56.6326 100.063C57.7904 96.7243 61.5778 106.454 64.8013 104.766C67.4082 103.401 73.0101 109.038 74.5644 109.219M59.9613 90.4637C59.0749 91.2084 57.2081 92.9689 56.8318 94.0541C56.4555 95.1393 58.1063 97.2624 58.9788 98.1883C59.9953 99.2422 62.2303 101.42 63.0378 101.7C63.8452 101.98 67.6274 103.681 69.4176 104.497C71.6966 106.076 75.9166 109.232 74.5644 109.219" stroke="black"/>
<path d="M189.833 40.8067C189.792 42.8083 188.782 46.7705 185.065 46.6067C180.419 46.4019 179.653 46.7406 175.206 47.6789C170.76 48.6173 171.005 46.8674 168.429 49.852C167.937 50.423 167.943 50.721 168.289 50.8505C169.755 51.3977 177.31 48.9317 179.009 51.3341C181.11 54.3048 188.914 47.3689 188.423 50.8687C188.031 53.6685 191.847 48.672 193.805 45.8237L189.833 40.8067Z" fill="#68CE17"/>
<path d="M189.833 40.8067C189.792 42.8083 188.782 46.7705 185.065 46.6067C180.419 46.4019 179.653 46.7406 175.206 47.6789C170.76 48.6173 171.005 46.8674 168.429 49.852C167.937 50.423 167.943 50.721 168.289 50.8505M189.833 40.8067L193.805 45.8237C191.847 48.672 188.031 53.6685 188.423 50.8687C188.914 47.3689 181.11 54.3048 179.009 51.3341C177.31 48.9317 169.755 51.3977 168.289 50.8505M189.833 40.8067C190.283 41.8733 191.143 44.291 190.983 45.4285C190.824 46.5659 188.387 47.704 187.189 48.1309C185.804 48.6059 182.822 49.5264 181.976 49.4079C181.129 49.2893 176.987 49.0808 175.022 48.9914C172.274 49.3594 167.08 50.2464 168.289 50.8505" stroke="black"/>
<path d="M61.8328 141.807C61.7922 143.808 60.7816 147.77 57.065 147.607C52.4191 147.402 51.6526 147.741 47.2062 148.679C42.7598 149.617 43.0049 147.867 40.4294 150.852C39.9367 151.423 39.9427 151.721 40.2895 151.85C41.7554 152.398 49.3101 149.932 51.009 152.334C53.1099 155.305 60.9135 148.369 60.4233 151.869C60.031 154.669 63.8473 149.672 65.8045 146.824L61.8328 141.807Z" fill="#68CE17"/>
<path d="M61.8328 141.807C61.7922 143.808 60.7816 147.77 57.065 147.607C52.4191 147.402 51.6526 147.741 47.2062 148.679C42.7598 149.617 43.0049 147.867 40.4294 150.852C39.9367 151.423 39.9427 151.721 40.2895 151.85M61.8328 141.807L65.8045 146.824C63.8473 149.672 60.031 154.669 60.4233 151.869C60.9135 148.369 53.1099 155.305 51.009 152.334C49.3101 149.932 41.7554 152.398 40.2895 151.85M61.8328 141.807C62.2827 142.873 63.1426 145.291 62.9833 146.428C62.8239 147.566 60.3872 148.704 59.1887 149.131C57.8037 149.606 54.8221 150.526 53.9757 150.408C53.1293 150.289 48.9875 150.081 47.0223 149.991C44.2739 150.359 39.0796 151.246 40.2895 151.85" stroke="black"/>
<path d="M226.585 141.807C226.625 143.808 227.636 147.77 231.352 147.607C235.998 147.402 236.765 147.741 241.211 148.679C245.658 149.617 245.412 147.867 247.988 150.852C248.481 151.423 248.475 151.721 248.128 151.85C246.662 152.398 239.107 149.932 237.408 152.334C235.307 155.305 227.504 148.369 227.994 151.869C228.386 154.669 224.57 149.672 222.613 146.824L226.585 141.807Z" fill="#68CE17"/>
<path d="M226.585 141.807C226.625 143.808 227.636 147.77 231.352 147.607C235.998 147.402 236.765 147.741 241.211 148.679C245.658 149.617 245.412 147.867 247.988 150.852C248.481 151.423 248.475 151.721 248.128 151.85M226.585 141.807L222.613 146.824C224.57 149.672 228.386 154.669 227.994 151.869C227.504 148.369 235.307 155.305 237.408 152.334C239.107 149.932 246.662 152.398 248.128 151.85M226.585 141.807C226.135 142.873 225.275 145.291 225.434 146.428C225.593 147.566 228.03 148.704 229.229 149.131C230.614 149.606 233.595 150.526 234.442 150.408C235.288 150.289 239.43 150.081 241.395 149.991C244.143 150.359 249.338 151.246 248.128 151.85" stroke="black"/>
<path d="M46.1083 62.0308C46.0311 63.8194 45.2025 67.3822 42.5048 67.3241C39.1326 67.2516 38.5673 67.5723 35.313 68.5159C32.0587 69.4596 32.2785 67.8909 30.3354 70.6177C29.9637 71.1394 29.961 71.4054 30.21 71.5128C31.2626 71.9667 36.8126 69.5848 37.9905 71.6901C39.447 74.2934 45.2842 67.9134 44.8447 71.0508C44.493 73.5608 47.3858 69.0076 48.8761 66.4173L46.1083 62.0308Z" fill="#68CE17"/>
<path d="M46.1083 62.0308C46.0311 63.8194 45.2025 67.3822 42.5048 67.3241C39.1326 67.2516 38.5673 67.5723 35.313 68.5159C32.0587 69.4596 32.2785 67.8909 30.3354 70.6177C29.9637 71.1394 29.961 71.4054 30.21 71.5128M46.1083 62.0308L48.8761 66.4173C47.3858 69.0076 44.493 73.5608 44.8447 71.0508C45.2842 67.9134 39.447 74.2934 37.9905 71.6901C36.8126 69.5848 31.2626 71.9667 30.21 71.5128M46.1083 62.0308C46.4099 62.9728 46.9776 65.1116 46.8347 66.1313C46.6919 67.1509 44.8936 68.2253 44.0123 68.635C42.9943 69.0922 40.8051 69.9851 40.1927 69.8993C39.5803 69.8135 36.5745 69.7257 35.1482 69.6925C33.1417 70.0864 29.3449 71.002 30.21 71.5128" stroke="black"/>
<path d="M101.653 117.797C102.94 119.042 105.993 121.056 107.91 119.157C110.307 116.783 110.938 116.627 113.948 115.071C116.958 113.516 115.719 112.529 119.005 113.17C119.634 113.292 119.819 113.484 119.712 113.733C119.261 114.787 113.596 116.879 114.19 119.217C114.926 122.108 106.3 121.497 108.778 123.471C110.761 125.05 105.528 123.738 102.664 122.884L101.653 117.797Z" fill="#68CE17"/>
<path d="M101.653 117.797C102.94 119.042 105.993 121.056 107.91 119.157C110.307 116.783 110.938 116.627 113.948 115.071C116.958 113.516 115.719 112.529 119.005 113.17C119.634 113.292 119.819 113.484 119.712 113.733M101.653 117.797L102.664 122.884C105.528 123.738 110.761 125.05 108.778 123.471C106.3 121.497 114.926 122.108 114.19 119.217C113.596 116.879 119.261 114.787 119.712 113.733M101.653 117.797C102.083 118.688 103.143 120.631 103.948 121.272C104.754 121.913 106.798 121.455 107.719 121.145C108.772 120.776 110.975 119.917 111.36 119.434C111.745 118.95 113.865 116.817 114.877 115.811C116.604 114.716 119.988 112.767 119.712 113.733" stroke="black"/>
<path d="M233.233 63.9922C231.65 63.1549 228.157 62.0696 226.844 64.4269C225.202 67.3734 224.64 67.6992 222.181 70.0306C219.722 72.3619 221.187 72.965 217.852 73.2638C217.214 73.3209 216.983 73.1888 217.017 72.9197C217.157 71.782 222.017 68.1964 220.795 66.1161C219.285 63.5437 227.74 61.7307 224.81 60.5245C222.467 59.5596 227.858 59.3642 230.846 59.3872L233.233 63.9922Z" fill="#68CE17"/>
<path d="M233.233 63.9922C231.65 63.1549 228.157 62.0696 226.844 64.4269C225.202 67.3734 224.64 67.6992 222.181 70.0306C219.722 72.3619 221.187 72.965 217.852 73.2638C217.214 73.3209 216.983 73.1888 217.017 72.9197M233.233 63.9922L230.846 59.3872C227.858 59.3642 222.467 59.5596 224.81 60.5245C227.74 61.7307 219.285 63.5437 220.795 66.1161C222.017 68.1964 217.157 71.782 217.017 72.9197M233.233 63.9922C232.572 63.2559 231.013 61.6852 230.061 61.2932C229.109 60.9012 227.273 61.9101 226.475 62.4636C225.566 63.111 223.689 64.5489 223.453 65.1207C223.218 65.6925 221.775 68.3307 221.083 69.5783C219.729 71.1107 217.02 73.9243 217.017 72.9197" stroke="black"/>
<path d="M195.242 127.625C195.146 129.413 194.281 132.967 191.584 132.881C188.212 132.774 187.644 133.088 184.38 133.998C181.116 134.908 181.352 133.342 179.381 136.049C179.004 136.566 178.998 136.832 179.246 136.942C180.294 137.407 185.868 135.083 187.025 137.2C188.454 139.818 194.357 133.499 193.885 136.632C193.507 139.138 196.447 134.615 197.964 132.04L195.242 127.625Z" fill="#68CE17"/>
<path d="M195.242 127.625C195.146 129.413 194.281 132.967 191.584 132.881C188.212 132.774 187.644 133.088 184.38 133.998C181.116 134.908 181.352 133.342 179.381 136.049C179.004 136.566 178.998 136.832 179.246 136.942M195.242 127.625L197.964 132.04C196.447 134.615 193.507 139.138 193.885 136.632C194.357 133.499 188.454 139.818 187.025 137.2C185.868 135.083 180.294 137.407 179.246 136.942M195.242 127.625C195.534 128.57 196.079 130.715 195.926 131.733C195.772 132.751 193.963 133.807 193.078 134.207C192.055 134.654 189.857 135.524 189.245 135.432C188.634 135.34 185.629 135.221 184.203 135.173C182.193 135.546 178.387 136.423 179.246 136.942" stroke="black"/>
</svg>
